HIERARCHY
ROOT Hips
{
    OFFSET 0.000000 0.000000 0.000000
    CHANNELS 6 Xposition Yposition Zposition Zrotation Xrotation Yrotation
    JOINT Spine
    {
        OFFSET -0.000000 7.246840 0.000000
        CHANNELS 3 Zrotation Xrotation Yrotation
        JOINT Spine1
        {
            OFFSET -0.000000 20.289354 0.000000
            CHANNELS 3 Zrotation Xrotation Yrotation
            JOINT Neck
            {
                OFFSET -0.000000 20.206032 1.836912
                CHANNELS 3 Zrotation Xrotation Yrotation
                JOINT Head
                {
                    OFFSET -0.000000 12.372654 -1.767522
                    CHANNELS 3 Zrotation Xrotation Yrotation
                    End Site
                    {
                        OFFSET -0.000000 22.094025 0.000000
                    }
                }
            }
            JOINT LeftShoulder
            {
                OFFSET 3.465871 17.201674 -0.568930
                CHANNELS 3 Zrotation Xrotation Yrotation
                JOINT LeftArm
                {
                    OFFSET 14.070313 0.000000 0.000000
                    CHANNELS 3 Zrotation Xrotation Yrotation
                    JOINT LeftForeArm
                    {
                        OFFSET 26.549477 0.000000 0.000000
                        CHANNELS 3 Zrotation Xrotation Yrotation
                        JOINT LeftHand
                        {
                            OFFSET 18.880413 0.000000 0.000000
                            CHANNELS 3 Zrotation Xrotation Yrotation
                            End Site
                            {
                                OFFSET 13.256415 0.000000 0.000000
                            }
                        }
                    }
                }
            }
            JOINT RightShoulder
            {
                OFFSET -3.526370 17.201674 -0.568930
                CHANNELS 3 Zrotation Xrotation Yrotation
                JOINT RightArm
                {
                    OFFSET -14.070313 0.000000 0.000000
                    CHANNELS 3 Zrotation Xrotation Yrotation
                    JOINT RightForeArm
                    {
                        OFFSET -26.549477 0.000000 0.000000
                        CHANNELS 3 Zrotation Xrotation Yrotation
                        JOINT RightHand
                        {
                            OFFSET -18.880413 0.000000 0.000000
                            CHANNELS 3 Zrotation Xrotation Yrotation
                            End Site
                            {
                                OFFSET -13.256415 0.000000 0.000000
                            }
                        }
                    }
                }
            }
        }
    }
    JOINT LeftUpLeg
    {
        OFFSET 8.837609 0.000000 0.000000
        CHANNELS 3 Zrotation Xrotation Yrotation
        JOINT LeftLeg
        {
            OFFSET -0.000000 -41.345005 0.000000
            CHANNELS 3 Zrotation Xrotation Yrotation
            JOINT LeftFoot
            {
                OFFSET -0.000000 -35.500874 0.000000
                CHANNELS 3 Zrotation Xrotation Yrotation
                JOINT LeftToeBase
                {
                    OFFSET -0.000000 -5.744446 13.256415
                    CHANNELS 3 Zrotation Xrotation Yrotation
                    End Site
                    {
                        OFFSET -0.000000 0.000000 3.535044
                    }
                }
            }
        }
    }
    JOINT RightUpLeg
    {
        OFFSET -8.837609 0.000000 0.000000
        CHANNELS 3 Zrotation Xrotation Yrotation
        JOINT RightLeg
        {
            OFFSET -0.000000 -41.345005 0.000000
            CHANNELS 3 Zrotation Xrotation Yrotation
            JOINT RightFoot
            {
                OFFSET -0.000000 -35.500874 0.000000
                CHANNELS 3 Zrotation Xrotation Yrotation
                JOINT RightToeBase
                {
                    OFFSET -0.000000 -5.744446 13.256415
                    CHANNELS 3 Zrotation Xrotation Yrotation
                    End Site
                    {
                        OFFSET -0.000000 0.000000 3.535044
                    }
                }
            }
        }
    }
}
MOTION
Frames:    7
Frame Time:    0.010000
0.247375    82.180626    -15.073717    3.296958    2.861584    1.872270    -5.817099    -14.361348    -1.377425    1.351909    4.558199    -0.697791    1.108249    29.128855    -1.449222    1.347674    -9.432478    -1.067512    18.027351    1.375676    7.621027    -29.464806    11.678563    -11.753717    6.730070    -12.444322    -19.574718    -30.636076    -11.495028    0.700702    -14.260359    -0.079577    12.480911    24.086981    6.167346    8.686885    -3.169761    -7.236153    2.181170    11.532314    -5.745040    14.190777    -0.479311    7.072445    -0.407626    -1.731205    -9.287670    -6.575590    2.747651    0.783834    -0.507814    -1.298435    -1.418717    1.833345    -9.458603    5.954106    -1.432736    7.787312    -8.374562    2.516358    -0.352254    -2.865274    -10.040781    -0.703020    0.991383    1.247434    
0.248031    82.180580    -15.068254    3.293745    2.864865    1.860451    -5.814574    -14.360267    -1.380990    1.357540    4.554292    -0.701969    1.097736    29.134645    -1.432957    1.365520    -9.442587    -1.047773    18.003843    1.363545    7.625957    -29.465662    11.656675    -11.721131    6.726180    -12.424966    -19.562346    -30.659849    -11.481647    0.717406    -14.277130    -0.091900    12.486856    24.070490    6.181612    8.669977    -3.202474    -7.247094    2.241542    11.632158    -5.736880    14.232903    -0.475105    7.075165    -0.414448    -1.731089    -9.289582    -6.564816    2.742922    0.779967    -0.504413    -1.317689    -1.412062    1.860451    -9.456620    5.950895    -1.432766    7.785010    -8.373544    2.511081    -0.316619    -2.858151    -10.013192    -0.687141    0.985679    1.219334    
0.246968    82.180305    -15.063164    3.288538    2.867537    1.844098    -5.808517    -14.355226    -1.380191    1.346078    4.544988    -0.701620    1.111435    29.137907    -1.427332    1.391586    -9.444467    -1.034291    18.019442    1.396554    7.652846    -29.487898    11.634067    -11.756859    6.710286    -12.443611    -19.504175    -30.601645    -11.497625    0.685775    -14.278466    -0.086082    12.483670    24.043098    6.207680    8.662962    -3.206106    -7.311044    2.298105    11.692156    -5.785292    14.296184    -0.470373    7.077191    -0.412572    -1.732862    -9.286611    -6.551810    2.772475    0.772433    -0.502297    -1.314692    -1.402155    1.856107    -9.450769    5.947243    -1.427715    7.786784    -8.374246    2.500031    -0.330828    -2.864588    -10.000140    -0.691158    1.004582    1.226216    
0.250003    82.180031    -15.057528    3.288026    2.869863    1.828436    -5.792230    -14.358007    -1.373200    1.322016    4.548131    -0.695633    1.128626    29.123079    -1.421165    1.407499    -9.424808    -1.022547    17.994396    1.438434    7.664428    -29.453176    11.760448    -11.789585    6.771294    -12.542550    -19.428440    -30.566637    -11.567851    0.599583    -14.277982    -0.090391    12.468451    24.030329    6.188455    8.674892    -3.268962    -7.537491    2.331818    11.797127    -5.993098    14.333580    -0.473212    7.083591    -0.431852    -1.731024    -9.292214    -6.520557    2.765272    0.777641    -0.491293    -1.307338    -1.426687    1.846005    -9.450707    5.942234    -1.432493    7.781383    -8.369246    2.510317    -0.324731    -2.860753    -9.987434    -0.695123    1.000147    1.233308    
0.249945    82.180313    -15.052716    3.287257    2.869843    1.820543    -5.791639    -14.351334    -1.377255    1.311551    4.535829    -0.699543    1.112856    29.129194    -1.397292    1.477836    -9.418836    -0.984112    18.004070    1.449532    7.658258    -29.461517    11.752061    -11.784306    6.740105    -12.530251    -19.356903    -30.543255    -11.550645    0.546257    -14.278022    -0.077611    12.465628    24.008375    6.169177    8.700603    -3.179746    -7.747347    2.371077    11.649941    -6.210850    14.451183    -0.470054    7.086149    -0.432883    -1.730480    -9.291878    -6.522553    2.772710    0.771749    -0.482945    -1.326124    -1.422508    1.872481    -9.449526    5.942739    -1.442205    7.786839    -8.364444    2.518300    -0.312451    -2.862450    -9.979079    -0.686328    0.984678    1.217904    
0.251526    82.179955    -15.046212    3.284162    2.870537    1.810566    -5.787064    -14.352941    -1.377138    1.305760    4.539065    -0.699630    1.118646    29.105726    -1.399868    1.510877    -9.383349    -0.979373    17.986549    1.451448    7.644979    -29.437372    11.757278    -11.762491    6.718623    -12.496327    -19.316845    -30.557199    -11.523799    0.550676    -14.294495    -0.085889    12.456282    24.046337    5.994950    8.743611    -3.191645    -7.671788    2.321903    11.655411    -6.132371    14.481089    -0.473091    7.091127    -0.417369    -1.723585    -9.296022    -6.527802    2.765215    0.775846    -0.486908    -1.313861    -1.402767    1.854942    -9.449151    5.944721    -1.440910    7.785594    -8.364935    2.529679    -0.325706    -2.862598    -9.985054    -0.697290    0.978851    1.237431    
0.252445    82.179787    -15.042487    3.286739    2.877690    1.799757    -5.786580    -14.356354    -1.381242    1.289429    4.538141    -0.703005    1.132288    29.108772    -1.395504    1.542157    -9.395370    -0.966010    17.987209    1.476863    7.660526    -29.433758    11.761735    -11.775287    6.721873    -12.491438    -19.284559    -30.597210    -11.524830    0.567022    -14.295541    -0.080402    12.457957    24.030420    6.020707    8.763796    -3.181894    -7.692254    2.342924    11.642633    -6.159167    14.432454    -0.473018    7.087833    -0.420810    -1.732701    -9.289892    -6.514211    2.783246    0.763262    -0.492025    -1.329362    -1.402694    1.876825    -9.454473    5.937502    -1.430888    7.787454    -8.362901    2.547978    -0.317969    -2.862567    -10.002791    -0.691354    0.979746    1.226885    
